<mxfile host="Electron" agent="Mozilla/5.0 (X11; Linux x86_64) AppleWebKit/537.36 (KHTML, like Gecko) draw.io/27.0.9 Chrome/134.0.6998.205 Electron/35.4.0 Safari/537.36" version="27.0.9">
  <diagram name="Page-1" id="ib0KKrDDxVYF5MeXXiUM">
    <mxGraphModel dx="1722" dy="1003" grid="1" gridSize="10" guides="1" tooltips="1" connect="1" arrows="1" fold="1" page="1" pageScale="1" pageWidth="850" pageHeight="1100" background="#ffffff" math="0" shadow="1">
      <root>
        <mxCell id="0" />
        <mxCell id="1" parent="0" />
        <mxCell id="14" value="Specimen and collection" style="edgeStyle=orthogonalEdgeStyle;endArrow=block;html=1;" parent="1" edge="1">
          <mxGeometry relative="1" as="geometry">
            <mxPoint x="750" y="350" as="targetPoint" />
          </mxGeometry>
        </mxCell>
        <mxCell id="15" value="report delivery offline" style="edgeStyle=orthogonalEdgeStyle;endArrow=block;html=1;" parent="1" edge="1">
          <mxGeometry relative="1" as="geometry">
            <mxPoint x="700" y="380" as="sourcePoint" />
          </mxGeometry>
        </mxCell>
        <mxCell id="sfKcnbmMzuwdX9yF3wZo-21" value="&lt;div&gt;&lt;font style=&quot;font-size: 11px;&quot;&gt;Longboard Rider&lt;/font&gt;&lt;/div&gt;" style="shape=umlActor;verticalLabelPosition=bottom;verticalAlign=top;html=1;outlineConnect=0;strokeColor=#666666;align=center;fontFamily=Helvetica;fontSize=12;fontColor=#333333;labelBackgroundColor=none;fillColor=#f5f5f5;horizontal=1;textShadow=0;" parent="1" vertex="1">
          <mxGeometry x="270" y="520" width="30" height="60" as="geometry" />
        </mxCell>
        <mxCell id="CbTRWkR76J8zcbdZSMRa-18" value="Bionic Boarder App" style="rounded=0;whiteSpace=wrap;html=1;labelPosition=center;verticalLabelPosition=middle;align=center;verticalAlign=top;fillColor=#eeeeee;strokeColor=#36393d;fontSize=16;fontColor=#000000;labelBackgroundColor=none;" parent="1" vertex="1">
          <mxGeometry x="380" y="310" width="780" height="620" as="geometry" />
        </mxCell>
        <mxCell id="-pO5D620ASrmPBSO5rts-25" value="&lt;font style=&quot;font-size: 14px;&quot;&gt;Register New User Account&lt;/font&gt;" style="ellipse;whiteSpace=wrap;html=1;fillColor=#ffcc99;strokeColor=#36393d;fontColor=#7EA6E0;" parent="1" vertex="1">
          <mxGeometry x="470" y="330" width="200" height="80" as="geometry" />
        </mxCell>
        <mxCell id="-pO5D620ASrmPBSO5rts-39" style="rounded=0;orthogonalLoop=1;jettySize=auto;html=1;strokeColor=#000000;endArrow=none;startFill=0;shadow=0;jumpStyle=none;entryX=0.317;entryY=0.958;entryDx=0;entryDy=0;entryPerimeter=0;" parent="1" source="sfKcnbmMzuwdX9yF3wZo-21" target="-pO5D620ASrmPBSO5rts-25" edge="1">
          <mxGeometry relative="1" as="geometry">
            <mxPoint x="330" y="440" as="sourcePoint" />
            <mxPoint x="480" y="390" as="targetPoint" />
          </mxGeometry>
        </mxCell>
        <mxCell id="-pO5D620ASrmPBSO5rts-40" style="rounded=0;orthogonalLoop=1;jettySize=auto;html=1;strokeColor=#000000;endArrow=none;startFill=0;shadow=0;jumpStyle=none;" parent="1" source="sfKcnbmMzuwdX9yF3wZo-21" target="yoxUfFOzrHix0iHAsxGL-16" edge="1">
          <mxGeometry relative="1" as="geometry">
            <mxPoint x="330" y="537" as="sourcePoint" />
            <mxPoint x="600.7000000000003" y="514.656" as="targetPoint" />
          </mxGeometry>
        </mxCell>
        <mxCell id="-pO5D620ASrmPBSO5rts-41" style="rounded=0;orthogonalLoop=1;jettySize=auto;html=1;strokeColor=#000000;endArrow=none;startFill=0;shadow=0;jumpStyle=none;entryX=0.023;entryY=0.373;entryDx=0;entryDy=0;entryPerimeter=0;" parent="1" source="sfKcnbmMzuwdX9yF3wZo-21" target="yoxUfFOzrHix0iHAsxGL-17" edge="1">
          <mxGeometry relative="1" as="geometry">
            <mxPoint x="264" y="847" as="sourcePoint" />
            <mxPoint x="600.0000000000005" y="643.9999999999998" as="targetPoint" />
          </mxGeometry>
        </mxCell>
        <mxCell id="yoxUfFOzrHix0iHAsxGL-16" value="&lt;font style=&quot;font-size: 14px;&quot;&gt;Login into App&lt;/font&gt;" style="ellipse;whiteSpace=wrap;html=1;fillColor=#ffcc99;strokeColor=#36393d;fontColor=#7EA6E0;" parent="1" vertex="1">
          <mxGeometry x="470" y="490" width="200" height="80" as="geometry" />
        </mxCell>
        <mxCell id="yoxUfFOzrHix0iHAsxGL-17" value="&lt;font style=&quot;font-size: 14px;&quot;&gt;Logout&lt;/font&gt;" style="ellipse;whiteSpace=wrap;html=1;fillColor=#ffcc99;strokeColor=#36393d;fontColor=#7EA6E0;" parent="1" vertex="1">
          <mxGeometry x="480" y="700" width="200" height="80" as="geometry" />
        </mxCell>
        <mxCell id="yoxUfFOzrHix0iHAsxGL-18" value="&lt;span style=&quot;font-size: 14px;&quot;&gt;Use App as Guest&lt;/span&gt;" style="ellipse;whiteSpace=wrap;html=1;fillColor=#ffcc99;strokeColor=#36393d;fontColor=#7EA6E0;" parent="1" vertex="1">
          <mxGeometry x="560" y="830" width="200" height="80" as="geometry" />
        </mxCell>
        <mxCell id="yoxUfFOzrHix0iHAsxGL-19" style="rounded=0;orthogonalLoop=1;jettySize=auto;html=1;strokeColor=#000000;endArrow=none;startFill=0;shadow=0;jumpStyle=none;entryX=0.015;entryY=0.373;entryDx=0;entryDy=0;entryPerimeter=0;" parent="1" source="sfKcnbmMzuwdX9yF3wZo-21" target="yoxUfFOzrHix0iHAsxGL-18" edge="1">
          <mxGeometry relative="1" as="geometry">
            <mxPoint x="280" y="640" as="sourcePoint" />
            <mxPoint x="645" y="698" as="targetPoint" />
          </mxGeometry>
        </mxCell>
        <mxCell id="yoxUfFOzrHix0iHAsxGL-21" value="&lt;span style=&quot;font-size: 14px;&quot;&gt;Enter Login Credentials&lt;/span&gt;" style="ellipse;whiteSpace=wrap;html=1;fillColor=#ffcc99;strokeColor=#36393d;fontColor=#7EA6E0;" parent="1" vertex="1">
          <mxGeometry x="860" y="350" width="200" height="80" as="geometry" />
        </mxCell>
        <mxCell id="yoxUfFOzrHix0iHAsxGL-26" value="&lt;font style=&quot;font-size: 14px;&quot;&gt;Remain Logged&lt;/font&gt;&lt;div&gt;&lt;font style=&quot;font-size: 14px;&quot;&gt;into the App&lt;/font&gt;&lt;/div&gt;" style="ellipse;whiteSpace=wrap;html=1;fillColor=#ffcc99;strokeColor=#36393d;fontColor=#7EA6E0;" parent="1" vertex="1">
          <mxGeometry x="830" y="580" width="200" height="80" as="geometry" />
        </mxCell>
        <mxCell id="quLks_jJKd6fu7Yliykg-16" value="&amp;lt;&amp;lt;extend&amp;gt;&amp;gt;" style="endArrow=classic;html=1;rounded=0;fillColor=#f5f5f5;gradientColor=#b3b3b3;strokeColor=#666666;dashed=1;fontColor=#060606;align=center;labelBackgroundColor=none;entryX=0.932;entryY=0.748;entryDx=0;entryDy=0;entryPerimeter=0;" parent="1" source="yoxUfFOzrHix0iHAsxGL-26" target="yoxUfFOzrHix0iHAsxGL-16" edge="1">
          <mxGeometry width="50" height="50" relative="1" as="geometry">
            <mxPoint x="770" y="549" as="sourcePoint" />
            <mxPoint x="890" y="549" as="targetPoint" />
          </mxGeometry>
        </mxCell>
        <mxCell id="quLks_jJKd6fu7Yliykg-17" value="&lt;font style=&quot;font-size: 14px;&quot;&gt;Reset Password&lt;/font&gt;" style="ellipse;whiteSpace=wrap;html=1;fillColor=#ffcc99;strokeColor=#36393d;fontColor=#7EA6E0;" parent="1" vertex="1">
          <mxGeometry x="740" y="670" width="200" height="80" as="geometry" />
        </mxCell>
        <mxCell id="mPkKGk8Zlr7uKQCcEDv3-25" value="&amp;lt;&amp;lt;include&amp;gt;&amp;gt;" style="endArrow=classic;html=1;rounded=0;fillColor=#f5f5f5;gradientColor=#b3b3b3;strokeColor=#666666;dashed=1;fontColor=#060606;align=center;labelBackgroundColor=none;entryX=0.007;entryY=0.415;entryDx=0;entryDy=0;exitX=0.984;exitY=0.634;exitDx=0;exitDy=0;entryPerimeter=0;exitPerimeter=0;" parent="1" source="-pO5D620ASrmPBSO5rts-25" target="yoxUfFOzrHix0iHAsxGL-21" edge="1">
          <mxGeometry width="50" height="50" relative="1" as="geometry">
            <mxPoint x="670" y="400" as="sourcePoint" />
            <mxPoint x="790" y="400" as="targetPoint" />
          </mxGeometry>
        </mxCell>
        <mxCell id="mPkKGk8Zlr7uKQCcEDv3-26" value="&lt;span style=&quot;font-size: 14px;&quot;&gt;Create User Profile&lt;/span&gt;" style="ellipse;whiteSpace=wrap;html=1;fillColor=#ffcc99;strokeColor=#36393d;fontColor=#7EA6E0;" parent="1" vertex="1">
          <mxGeometry x="850" y="440" width="200" height="80" as="geometry" />
        </mxCell>
        <mxCell id="mPkKGk8Zlr7uKQCcEDv3-27" value="&amp;lt;&amp;lt;include&amp;gt;&amp;gt;" style="endArrow=classic;html=1;rounded=0;fillColor=#f5f5f5;gradientColor=#b3b3b3;strokeColor=#666666;dashed=1;fontColor=#060606;align=center;labelBackgroundColor=none;exitX=0.691;exitY=0.978;exitDx=0;exitDy=0;exitPerimeter=0;entryX=0.019;entryY=0.415;entryDx=0;entryDy=0;entryPerimeter=0;" parent="1" source="-pO5D620ASrmPBSO5rts-25" target="mPkKGk8Zlr7uKQCcEDv3-26" edge="1">
          <mxGeometry width="50" height="50" relative="1" as="geometry">
            <mxPoint x="500" y="450" as="sourcePoint" />
            <mxPoint x="717" y="452" as="targetPoint" />
          </mxGeometry>
        </mxCell>
        <mxCell id="NtJCmM9VllwKPNF-fU6l-15" value="AWS Cloud Services" style="rounded=0;whiteSpace=wrap;html=1;labelPosition=center;verticalLabelPosition=middle;align=center;verticalAlign=top;fillColor=#eeeeee;strokeColor=#36393d;fontSize=16;fontColor=#000000;labelBackgroundColor=none;" parent="1" vertex="1">
          <mxGeometry x="1190" y="310" width="520" height="620" as="geometry" />
        </mxCell>
        <mxCell id="NtJCmM9VllwKPNF-fU6l-16" value="&lt;span style=&quot;font-size: 14px;&quot;&gt;Record User&#39;s Credentials into Database&lt;/span&gt;" style="ellipse;whiteSpace=wrap;html=1;fillColor=#ffcc99;strokeColor=#36393d;fontColor=#7EA6E0;" parent="1" vertex="1">
          <mxGeometry x="1440" y="350" width="200" height="80" as="geometry" />
        </mxCell>
        <mxCell id="NtJCmM9VllwKPNF-fU6l-17" value="&amp;lt;&amp;lt;include&amp;gt;&amp;gt;" style="endArrow=classic;html=1;rounded=0;fillColor=#f5f5f5;gradientColor=#b3b3b3;strokeColor=#666666;dashed=1;fontColor=#060606;align=center;labelBackgroundColor=none;entryX=0;entryY=0.5;entryDx=0;entryDy=0;exitX=0.973;exitY=0.394;exitDx=0;exitDy=0;exitPerimeter=0;" parent="1" source="yoxUfFOzrHix0iHAsxGL-21" target="NtJCmM9VllwKPNF-fU6l-16" edge="1">
          <mxGeometry width="50" height="50" relative="1" as="geometry">
            <mxPoint x="810" y="360" as="sourcePoint" />
            <mxPoint x="1067" y="472" as="targetPoint" />
          </mxGeometry>
        </mxCell>
        <mxCell id="NtJCmM9VllwKPNF-fU6l-18" value="&lt;span style=&quot;font-size: 14px;&quot;&gt;Record User&#39;s Profile into Database&lt;/span&gt;" style="ellipse;whiteSpace=wrap;html=1;fillColor=#ffcc99;strokeColor=#36393d;fontColor=#7EA6E0;" parent="1" vertex="1">
          <mxGeometry x="1230" y="430" width="200" height="80" as="geometry" />
        </mxCell>
        <mxCell id="NtJCmM9VllwKPNF-fU6l-19" value="&amp;lt;&amp;lt;include&amp;gt;&amp;gt;" style="endArrow=classic;html=1;rounded=0;fillColor=#f5f5f5;gradientColor=#b3b3b3;strokeColor=#666666;dashed=1;fontColor=#060606;align=center;labelBackgroundColor=none;entryX=-0.006;entryY=0.435;entryDx=0;entryDy=0;exitX=0.99;exitY=0.415;exitDx=0;exitDy=0;exitPerimeter=0;entryPerimeter=0;" parent="1" source="mPkKGk8Zlr7uKQCcEDv3-26" target="NtJCmM9VllwKPNF-fU6l-18" edge="1">
          <mxGeometry width="50" height="50" relative="1" as="geometry">
            <mxPoint x="1080" y="450" as="sourcePoint" />
            <mxPoint x="1285" y="458" as="targetPoint" />
          </mxGeometry>
        </mxCell>
        <mxCell id="NtJCmM9VllwKPNF-fU6l-20" value="&lt;span style=&quot;font-size: 14px;&quot;&gt;Validate User&#39;s Login Credentials&lt;/span&gt;" style="ellipse;whiteSpace=wrap;html=1;fillColor=#ffcc99;strokeColor=#36393d;fontColor=#7EA6E0;" parent="1" vertex="1">
          <mxGeometry x="1450" y="530" width="200" height="80" as="geometry" />
        </mxCell>
        <mxCell id="NtJCmM9VllwKPNF-fU6l-21" value="&amp;lt;&amp;lt;include&amp;gt;&amp;gt;" style="endArrow=classic;html=1;rounded=0;fillColor=#f5f5f5;gradientColor=#b3b3b3;strokeColor=#666666;dashed=1;fontColor=#060606;align=center;labelBackgroundColor=none;exitX=0.973;exitY=0.321;exitDx=0;exitDy=0;exitPerimeter=0;entryX=0.015;entryY=0.394;entryDx=0;entryDy=0;entryPerimeter=0;" parent="1" source="yoxUfFOzrHix0iHAsxGL-16" target="NtJCmM9VllwKPNF-fU6l-20" edge="1">
          <mxGeometry width="50" height="50" relative="1" as="geometry">
            <mxPoint x="760" y="513" as="sourcePoint" />
            <mxPoint x="1006" y="588" as="targetPoint" />
          </mxGeometry>
        </mxCell>
        <mxCell id="NtJCmM9VllwKPNF-fU6l-22" value="&lt;span style=&quot;font-size: 14px;&quot;&gt;Keep User&#39;s Session Active&lt;/span&gt;" style="ellipse;whiteSpace=wrap;html=1;fillColor=#ffcc99;strokeColor=#36393d;fontColor=#7EA6E0;" parent="1" vertex="1">
          <mxGeometry x="1460" y="680" width="200" height="80" as="geometry" />
        </mxCell>
        <mxCell id="NtJCmM9VllwKPNF-fU6l-23" value="&amp;lt;&amp;lt;include&amp;gt;&amp;gt;" style="endArrow=classic;html=1;rounded=0;fillColor=#f5f5f5;gradientColor=#b3b3b3;strokeColor=#666666;dashed=1;fontColor=#060606;align=center;labelBackgroundColor=none;entryX=-0.002;entryY=0.415;entryDx=0;entryDy=0;exitX=1;exitY=0.5;exitDx=0;exitDy=0;entryPerimeter=0;" parent="1" source="yoxUfFOzrHix0iHAsxGL-26" target="NtJCmM9VllwKPNF-fU6l-22" edge="1">
          <mxGeometry width="50" height="50" relative="1" as="geometry">
            <mxPoint x="1090" y="690" as="sourcePoint" />
            <mxPoint x="1311" y="692" as="targetPoint" />
          </mxGeometry>
        </mxCell>
        <mxCell id="NtJCmM9VllwKPNF-fU6l-24" value="&lt;font style=&quot;font-size: 14px;&quot;&gt;Update User&#39;s Credentials&lt;/font&gt;" style="ellipse;whiteSpace=wrap;html=1;fillColor=#ffcc99;strokeColor=#36393d;fontColor=#7EA6E0;" parent="1" vertex="1">
          <mxGeometry x="1210" y="700" width="200" height="80" as="geometry" />
        </mxCell>
        <mxCell id="NtJCmM9VllwKPNF-fU6l-25" value="&amp;lt;&amp;lt;include&amp;gt;&amp;gt;" style="endArrow=classic;html=1;rounded=0;fillColor=#f5f5f5;gradientColor=#b3b3b3;strokeColor=#666666;dashed=1;fontColor=#060606;align=center;labelBackgroundColor=none;exitX=0.994;exitY=0.644;exitDx=0;exitDy=0;exitPerimeter=0;" parent="1" source="quLks_jJKd6fu7Yliykg-17" target="NtJCmM9VllwKPNF-fU6l-24" edge="1">
          <mxGeometry width="50" height="50" relative="1" as="geometry">
            <mxPoint x="1080" y="640" as="sourcePoint" />
            <mxPoint x="1450" y="703" as="targetPoint" />
          </mxGeometry>
        </mxCell>
        <mxCell id="NtJCmM9VllwKPNF-fU6l-26" value="&lt;span style=&quot;font-size: 14px;&quot;&gt;Start User&#39;s Session&lt;/span&gt;" style="ellipse;whiteSpace=wrap;html=1;fillColor=#ffcc99;strokeColor=#36393d;fontColor=#7EA6E0;" parent="1" vertex="1">
          <mxGeometry x="1220" y="560" width="200" height="80" as="geometry" />
        </mxCell>
        <mxCell id="NtJCmM9VllwKPNF-fU6l-27" value="&amp;lt;&amp;lt;include&amp;gt;&amp;gt;" style="endArrow=classic;html=1;rounded=0;fillColor=#f5f5f5;gradientColor=#b3b3b3;strokeColor=#666666;dashed=1;fontColor=#060606;align=center;labelBackgroundColor=none;exitX=0.986;exitY=0.602;exitDx=0;exitDy=0;exitPerimeter=0;" parent="1" source="yoxUfFOzrHix0iHAsxGL-16" target="NtJCmM9VllwKPNF-fU6l-26" edge="1">
          <mxGeometry width="50" height="50" relative="1" as="geometry">
            <mxPoint x="675" y="526" as="sourcePoint" />
            <mxPoint x="1463" y="572" as="targetPoint" />
          </mxGeometry>
        </mxCell>
        <mxCell id="NtJCmM9VllwKPNF-fU6l-28" value="&lt;span style=&quot;font-size: 14px;&quot;&gt;Terminate User&#39;s Session&lt;/span&gt;" style="ellipse;whiteSpace=wrap;html=1;fillColor=#ffcc99;strokeColor=#36393d;fontColor=#7EA6E0;" parent="1" vertex="1">
          <mxGeometry x="1490" y="800" width="200" height="80" as="geometry" />
        </mxCell>
        <mxCell id="NtJCmM9VllwKPNF-fU6l-29" value="&amp;lt;&amp;lt;include&amp;gt;&amp;gt;" style="endArrow=classic;html=1;rounded=0;fillColor=#f5f5f5;gradientColor=#b3b3b3;strokeColor=#666666;dashed=1;fontColor=#060606;align=center;labelBackgroundColor=none;exitX=0.969;exitY=0.717;exitDx=0;exitDy=0;exitPerimeter=0;" parent="1" source="yoxUfFOzrHix0iHAsxGL-17" target="NtJCmM9VllwKPNF-fU6l-28" edge="1">
          <mxGeometry width="50" height="50" relative="1" as="geometry">
            <mxPoint x="839.5" y="838" as="sourcePoint" />
            <mxPoint x="1020.5" y="830" as="targetPoint" />
          </mxGeometry>
        </mxCell>
        <mxCell id="NtJCmM9VllwKPNF-fU6l-30" value="&lt;span style=&quot;font-size: 14px;&quot;&gt;Record Guest&#39;s Session&lt;/span&gt;" style="ellipse;whiteSpace=wrap;html=1;fillColor=#ffcc99;strokeColor=#36393d;fontColor=#7EA6E0;" parent="1" vertex="1">
          <mxGeometry x="1240" y="840" width="200" height="80" as="geometry" />
        </mxCell>
        <mxCell id="NtJCmM9VllwKPNF-fU6l-32" value="&amp;lt;&amp;lt;include&amp;gt;&amp;gt;" style="endArrow=classic;html=1;rounded=0;fillColor=#f5f5f5;gradientColor=#b3b3b3;strokeColor=#666666;dashed=1;fontColor=#060606;align=center;labelBackgroundColor=none;exitX=0.99;exitY=0.342;exitDx=0;exitDy=0;exitPerimeter=0;" parent="1" source="yoxUfFOzrHix0iHAsxGL-18" target="NtJCmM9VllwKPNF-fU6l-30" edge="1">
          <mxGeometry width="50" height="50" relative="1" as="geometry">
            <mxPoint x="650" y="802.5" as="sourcePoint" />
            <mxPoint x="1278" y="857.5" as="targetPoint" />
          </mxGeometry>
        </mxCell>
        <mxCell id="u2sn5mLFxj1Xstu0_Q6j-15" style="rounded=0;orthogonalLoop=1;jettySize=auto;html=1;strokeColor=#000000;endArrow=none;startFill=0;shadow=0;jumpStyle=none;entryX=0.065;entryY=0.233;entryDx=0;entryDy=0;entryPerimeter=0;" parent="1" source="sfKcnbmMzuwdX9yF3wZo-21" target="quLks_jJKd6fu7Yliykg-17" edge="1">
          <mxGeometry relative="1" as="geometry">
            <mxPoint x="470" y="612" as="sourcePoint" />
            <mxPoint x="642" y="600" as="targetPoint" />
          </mxGeometry>
        </mxCell>
      </root>
    </mxGraphModel>
  </diagram>
</mxfile>
